<?xml version="1.0" encoding="utf-8"?>
<!-- Svg Vector Icons : http://www.onlinewebfonts.com/icon -->
<!DOCTYPE svg PUBLIC "-//W3C//DTD SVG 1.1//EN" "http://www.w3.org/Graphics/SVG/1.1/DTD/svg11.dtd">
<svg version="1.1" xmlns="http://www.w3.org/2000/svg" xmlns:xlink="http://www.w3.org/1999/xlink" x="0px" y="0px" viewBox="0 0 256 256" enable-background="new 0 0 256 256" xml:space="preserve">
<metadata> Svg Vector Icons : http://www.onlinewebfonts.com/icon </metadata>
<g><g><g><path fill="#000000" d="M73.4,39.6C54.6,58.3,39,74.3,38.7,74.9c-1.2,3,2.2,6.7,5.5,6c1.6-0.4,67.5-65.8,68.9-68.4c1.2-2.2,0.9-3.6-0.8-5.5C109,3.7,110.9,2.2,73.4,39.6z"/><path fill="#000000" d="M143.7,7.1c-1.8,1.8-2,3.3-0.8,5.5c1.4,2.5,67.3,68,68.9,68.4c3.4,0.8,6.7-2.9,5.5-6.1c-0.6-1.7-63.2-64.8-67.1-67.7C147.5,5,145.7,5,143.7,7.1z"/><path fill="#000000" d="M12.2,91.3c-1.9,1.5-2.2,3-2.2,13.6c0,10.3,0,10.5,1.3,12c1.2,1.4,1.8,1.6,5.4,1.8l4,0.3l13.7,54.6c7.5,30,13.9,55.2,14.3,56c0.4,0.7,1.3,1.6,2.1,1.9c0.9,0.3,20.9,0.6,53.9,0.6c49.8,0,52.5-0.1,52.1-1c-0.3-0.5-1-2.6-1.8-4.6l-1.4-3.8l-48.6-0.1l-48.7-0.2L43.3,171c-7.1-28.3-12.9-51.6-12.9-51.8c0-0.2,43.9-0.4,97.6-0.4c68.6,0,97.5,0.2,97.5,0.6c0,0.3-2.1,8.8-4.7,19c-2.6,10.1-4.7,18.7-4.7,19c0,0.6,8.2,3.7,8.7,3.3c0.2-0.1,2.4-8.7,5-19c2.5-10.3,4.9-19.6,5.2-20.8l0.6-2h3.6c3.3,0,3.8-0.2,5.3-1.6l1.6-1.6v-10.6c0-10.7-0.2-12.2-2.2-13.7C242.6,90.3,13.4,90.3,12.2,91.3z"/><path fill="#000000" d="M197.6,166.3c-13.7,2-25.3,10.3-31.7,22.6c-12.6,24.2,0.4,53.3,27.1,60.6c2.5,0.7,5.5,1,10.4,1s8-0.3,10.4-1c16.4-4.5,28.4-17.5,31.3-33.8c1-5.7,1-8.4,0.2-13.7c-1.4-9.2-5.4-17-12-23.7c-6.8-6.7-14.9-10.7-24.5-12C203.9,165.7,202.4,165.7,197.6,166.3z M205.3,185.3c2.5,1.1,3.1,3,3.1,11.4v7.1h7.8c4.3,0,8.2,0.2,8.7,0.6c1.7,0.9,2.5,3.6,1.7,5.5c-1.2,2.8-2.9,3.3-11.1,3.3h-7.2v6.9c0,4.8-0.2,7.5-0.8,8.8c-1.3,3.2-5,3.9-7.5,1.4c-1-1-1.1-1.9-1.1-9.1v-8h-7.5c-8.5,0-10.3-0.6-11.3-3.3c-0.7-1.9-0.2-3.6,1.4-5.1c0.9-0.8,2.4-1,9-1.1l8-0.2l0.2-8c0.1-6.6,0.3-8.1,1.1-9c0.8-0.9,2.3-1.8,3.3-2C203.4,184.5,204.3,184.9,205.3,185.3z"/></g></g></g>
</svg>